<?xml version="1.0" encoding="iso-8859-1"?>
<!-- Generator: Adobe Illustrator 19.0.0, SVG Export Plug-In . SVG Version: 6.00 Build 0)  -->
<svg version="1.1" id="Layer_1" xmlns="http://www.w3.org/2000/svg" xmlns:xlink="http://www.w3.org/1999/xlink" x="0px" y="0px"
	 viewBox="0 0 511.999 511.999" style="enable-background:new 0 0 511.999 511.999;" xml:space="preserve">
<path style="fill:#F24C8F;" d="M230.713,105.756c0-24.833-20.13-44.963-44.963-44.963s-44.964,20.13-44.964,44.963"/>
<path style="fill:#2BA5F7;" d="M503.279,108.795l-247.28,187.721L8.719,108.795h57.664l55.222,41.922l100.574,76.358
	c19.996,15.172,47.642,15.172,67.639,0l99.877-75.823l55.92-42.457H503.279z"/>
<path style="fill:#F7B239;" d="M389.288,150.717l0.407,0.535l-99.877,75.823c-19.996,15.172-47.642,15.172-67.639,0l-100.574-76.358
	h64.139L389.288,150.717L389.288,150.717z"/>
<path style="fill:#2BA5F7;" d="M255.999,454.8h5.115c12.44,0,24.414,3.325,34.819,9.347c10.405,6.022,19.252,14.741,25.449,25.53
	H190.604c12.405-21.577,35.389-34.877,60.279-34.877H255.999z"/>
<path style="fill:#F24C8F;" d="M140.893,108.795h89.716c-1.558,23.403-21.054,41.922-44.864,41.922S142.45,132.197,140.893,108.795z
	"/>
<path style="fill:#4D4D4D;" d="M440.341,101.851l-52.882,40.147h-64.247l26.022-27.177c3.331-3.478-9.266-15.54-12.595-12.061
	l-37.571,39.238h-73.785c7.996-8.701,13.187-20.038,14.023-32.601c0.083-1.201,0.124-2.424,0.124-3.637
	c0-4.815-17.439-4.815-17.439,0c0,0.813-0.028,1.631-0.085,2.455c-1.261,18.943-17.146,33.782-36.163,33.782
	c-19.012,0-34.891-14.839-36.155-33.816c-0.055-0.781-0.083-1.596-0.083-2.422c0-4.815-17.439-4.815-17.439,0
	c0,1.232,0.042,2.459,0.123,3.613c0.837,12.574,6.028,23.92,14.025,32.624h-21.68l-52.881-40.147L61.111,115.74L216.91,234.023
	c11.507,8.731,25.298,13.096,39.088,13.096c13.792,0,27.584-4.365,39.093-13.098L450.887,115.74L440.341,101.851z M284.548,220.129
	c-16.81,12.752-40.288,12.753-57.095,0.001l-79.944-60.695h108.304l-22.897,23.913c-3.331,3.478-3.211,8.998,0.267,12.328
	c1.689,1.618,3.86,2.422,6.029,2.422c2.295,0,4.586-0.9,6.299-2.689l34.445-35.974h84.535L284.548,220.129z"/>
<path d="M511.542,106.014c-1.194-3.548-4.521-5.937-8.264-5.937H363.353l61.994-64.746c3.331-3.478,3.211-8.998-0.267-12.328
	c-3.477-3.331-8.997-3.212-12.328,0.267l-73.542,76.805H239.129c-2.579-24.407-21.58-43.98-45.716-47.447
	c-0.834-4.176-2.318-9.544-4.975-14.929c-7.666-15.539-21.554-24.097-39.107-24.097c-4.817,0-8.719,3.904-8.719,8.719
	s3.903,8.719,8.719,8.719c10.862,0,18.47,4.565,23.26,13.957c1.407,2.759,2.367,5.559,3.029,8.045
	c-22.954,4.403-40.76,23.461-43.25,47.031H8.719c-3.743,0-7.07,2.39-8.264,5.937c-1.194,3.548,0.01,7.463,2.991,9.726
	L247.28,300.842v145.331c-26.543,1.232-50.917,15.991-64.235,39.158c-1.551,2.698-1.546,6.019,0.012,8.712
	c1.559,2.694,4.435,4.353,7.547,4.353h130.778c3.112,0,5.987-1.658,7.546-4.352c1.559-2.694,1.565-6.013,0.015-8.711
	c-6.843-11.913-16.747-21.848-28.643-28.734c-10.848-6.28-23.081-9.848-35.582-10.426V300.844L508.551,115.74
	C511.533,113.476,512.737,109.562,511.542,106.014z M185.749,69.513c18.052,0,33.061,13.268,35.796,30.564h-71.59
	C152.689,82.78,167.698,69.513,185.749,69.513z M303.73,480.958h-95.452c11.229-11.005,26.504-17.439,42.605-17.439h10.232
	c10.682,0,21.211,2.826,30.45,8.174C296.008,474.266,300.094,477.384,303.73,480.958z M255.999,285.569L34.625,117.514h442.748
	L255.999,285.569z"/>
<g>
	<circle style="fill:#FFFFFF;" cx="300.466" cy="190.163" r="8.719"/>
	<circle style="fill:#FFFFFF;" cx="204.333" cy="178.107" r="8.719"/>
</g>
<g>
</g>
<g>
</g>
<g>
</g>
<g>
</g>
<g>
</g>
<g>
</g>
<g>
</g>
<g>
</g>
<g>
</g>
<g>
</g>
<g>
</g>
<g>
</g>
<g>
</g>
<g>
</g>
<g>
</g>
</svg>
